<svg xmlns="http://www.w3.org/2000/svg" width="512" height="512" viewBox="0 0 512 512">
  <defs>
    <linearGradient id="bg" x1="0%" y1="0%" x2="100%" y2="100%">
      <stop offset="0%" stop-color="#0d1b2a"/>
      <stop offset="100%" stop-color="#091422"/>
    </linearGradient>
    <linearGradient id="g1" x1="50%" y1="0%" x2="100%" y2="100%">
      <stop offset="0%" stop-color="#34d399"/>
      <stop offset="100%" stop-color="#22c55e"/>
    </linearGradient>
    <linearGradient id="g2" x1="50%" y1="0%" x2="0%" y2="100%">
      <stop offset="0%" stop-color="#22c55e"/>
      <stop offset="100%" stop-color="#16a34a"/>
    </linearGradient>
    <linearGradient id="g3" x1="100%" y1="50%" x2="0%" y2="100%">
      <stop offset="0%" stop-color="#16a34a"/>
      <stop offset="100%" stop-color="#15803d"/>
    </linearGradient>
    <linearGradient id="g4" x1="0%" y1="50%" x2="100%" y2="100%">
      <stop offset="0%" stop-color="#15803d"/>
      <stop offset="100%" stop-color="#0f7a36"/>
    </linearGradient>
  </defs>
  <!-- Background -->
  <rect width="512" height="512" rx="112" fill="url(#bg)"/>
  <!-- Diamond border (dark navy) -->
  <polygon points="256,52 460,256 256,460 52,256" fill="#152a4a"/>
  <!-- Green triangle — top right -->
  <polygon points="256,78 434,256 256,256" fill="url(#g1)"/>
  <!-- Green triangle — top left -->
  <polygon points="256,78 78,256 256,256" fill="url(#g2)"/>
  <!-- Green triangle — bottom right -->
  <polygon points="434,256 256,434 256,256" fill="url(#g3)"/>
  <!-- Green triangle — bottom left -->
  <polygon points="78,256 256,434 256,256" fill="url(#g4)"/>
  <!-- White center square -->
  <rect x="176" y="176" width="160" height="160" rx="14" fill="white"/>
  <!-- Bold P letter -->
  <path fill-rule="evenodd" fill="#0d1b2a" d="M204,316 L204,196 L270,196 C316,196 316,268 270,268 L232,268 L232,316 Z M232,216 L264,216 C290,216 290,248 264,248 L232,248 Z"/>
</svg>
